<svg width="28" height="29" viewBox="0 0 28 29" fill="none" xmlns="http://www.w3.org/2000/svg">
<path d="M14.2857 12.2446V17.1437H22.3884C22.0607 19.2446 19.9411 23.3036 14.2857 23.3036C9.41071 23.3036 5.42946 19.2687 5.42946 14.2866C5.42946 9.30446 9.41161 5.26964 14.2857 5.26964C17.0598 5.26964 18.9179 6.44732 19.9821 7.47054L23.8562 3.73482C21.3679 1.4125 18.142 0 14.2857 0C6.38661 0 0 6.38661 0 14.2857C0 22.1848 6.38661 28.5714 14.2857 28.5714C22.5312 28.5714 28 22.775 28 14.6116C28 13.6732 27.8991 12.9571 27.775 12.2438H14.2857V12.2446Z" fill="#4285F4"/>
</svg>
