<svg width="39" height="28" viewBox="0 0 39 28" fill="none" xmlns="http://www.w3.org/2000/svg">
<path d="M34.6416 0H3.73596C1.77464 0 0.169922 1.18125 0.169922 2.625V25.375C0.169922 26.8188 1.77464 28 3.73596 28H17.1888C18.2934 28 19.1888 27.1046 19.1888 26V17.75C19.1888 16.6454 18.2934 15.75 17.1888 15.75H16.1841C15.2176 15.75 14.4341 14.9665 14.4341 14C14.4341 13.0335 15.2176 12.25 16.1841 12.25H17.4388C18.4053 12.25 19.1888 11.4665 19.1888 10.5C19.1888 7.60725 22.3911 5.25 26.3209 5.25H29.3256C30.2921 5.25 31.0756 6.0335 31.0756 7C31.0756 7.9665 30.2921 8.75 29.3256 8.75H26.3209C25.0133 8.75 23.9435 9.5375 23.9435 10.5C23.9435 11.4665 24.727 12.25 25.6935 12.25H28.6331C29.8317 12.25 30.6756 13.4278 30.2901 14.5628C30.0491 15.2726 29.3827 15.75 28.6331 15.75H25.9435C24.8389 15.75 23.9435 16.6454 23.9435 17.75V26C23.9435 27.1046 24.8389 28 25.9435 28H34.6416C36.6029 28 38.2077 26.8188 38.2077 25.375V2.625C38.2077 1.18125 36.6029 0 34.6416 0Z" fill="white"/>
</svg>
